<svg class="svg-icon" style="width: 1em; height: 1em;vertical-align: middle;fill: #68688a;overflow: hidden;" viewBox="0 0 1024 1024" version="1.1" xmlns="http://www.w3.org/2000/svg"><path d="M213.333333 597.333333a213.333333 213.333333 0 1 1 0 426.666667 213.333333 213.333333 0 0 1 0-426.666667z m106.666667 253.354667a39.978667 39.978667 0 1 0 0-80H266.666667a13.312 13.312 0 0 1-13.354667-13.354667V704a39.978667 39.978667 0 1 0-80 0v53.333333c0 7.381333-5.973333 13.354667-13.312 13.354667H106.666667a39.978667 39.978667 0 1 0 0 80h53.333333c7.381333 0 13.354667 5.973333 13.354667 13.312v53.333333a39.978667 39.978667 0 1 0 80 0v-53.333333c0-7.381333 5.973333-13.354667 13.312-13.354667H320zM682.666667 810.666667a128 128 0 0 0 256 0V213.333333a128 128 0 0 0-256 0v597.333334z m-85.333334 0V213.333333a213.333333 213.333333 0 0 1 426.666667 0v597.333334a213.333333 213.333333 0 0 1-426.666667 0z"  /></svg>