<svg class="svg-icon" style="width: 1em; height: 1em;vertical-align: middle;fill: #68688a;overflow: hidden;" viewBox="0 0 1024 1024" version="1.1" xmlns="http://www.w3.org/2000/svg"><path d="M810.666667 597.333333a213.333333 213.333333 0 1 1 0 426.666667 213.333333 213.333333 0 0 1 0-426.666667z m106.666666 253.354667a39.978667 39.978667 0 1 0 0-80h-53.333333a13.312 13.312 0 0 1-13.354667-13.354667V704a39.978667 39.978667 0 1 0-80 0v53.333333c0 7.381333-5.973333 13.354667-13.312 13.354667H704a39.978667 39.978667 0 1 0 0 80h53.333333c7.381333 0 13.354667 5.973333 13.354667 13.312v53.333333a39.978667 39.978667 0 1 0 80 0v-53.333333c0-7.381333 5.973333-13.354667 13.312-13.354667h53.333333zM213.333333 85.333333a128 128 0 1 0 0 256h597.333334a128 128 0 0 0 0-256H213.333333z m0-85.333333h597.333334a213.333333 213.333333 0 0 1 0 426.666667H213.333333A213.333333 213.333333 0 1 1 213.333333 0z"  /></svg>