<svg class="svg-icon" style="width: 1em; height: 1em;vertical-align: middle;fill: #68688a;overflow: hidden;" viewBox="0 0 1024 1024" version="1.1" xmlns="http://www.w3.org/2000/svg"><path d="M733.610667 467.712A267.562667 267.562667 0 0 0 548.010667 10.581333H183.466667a53.333333 53.333333 0 0 0 0 106.666667h43.221333a10.666667 10.666667 0 0 1 10.666667 10.666667V896a10.666667 10.666667 0 0 1-10.666667 10.666667H183.466667a53.333333 53.333333 0 1 0 0 106.666666h425.088a287.658667 287.658667 0 0 0 125.013333-545.536z m-185.6-350.464a160.512 160.512 0 0 1 0 320.981333H354.688a10.666667 10.666667 0 0 1-10.666667-10.666666V128a10.666667 10.666667 0 0 1 10.666667-10.666667z m60.586666 789.333333H354.688a10.666667 10.666667 0 0 1-10.666667-10.666666v-340.352a10.666667 10.666667 0 0 1 10.666667-10.666667H608.597333a180.864 180.864 0 0 1 0 361.685333z"  /></svg>