<?xml version="1.0" encoding="utf-8"?>
<svg viewBox="0 0 1024 1024" style="width: 1em; height: 1em;vertical-align: middle;fill: #68688a;overflow: hidden;" xmlns="http://www.w3.org/2000/svg">
  <path d="M 607.978 808.485 C 607.978 907.019 714.644 968.603 799.978 919.336 C 839.581 896.471 863.978 854.215 863.978 808.485 L 863.978 211.151 C 863.978 112.617 757.311 51.033 671.978 100.3 C 632.374 123.165 607.978 165.421 607.978 211.151 L 607.978 808.485 Z M 522.644 808.485 L 522.644 211.151 C 522.644 46.927 700.422 -55.713 842.644 26.399 C 908.65 64.508 949.311 134.935 949.311 211.151 L 949.311 808.485 C 949.311 972.709 771.533 1075.349 629.311 993.237 C 563.305 955.128 522.644 884.701 522.644 808.485 Z"/>
  <path d="M 601.307 1341.054 L 601.307 743.72 C 601.307 579.496 779.085 476.856 921.307 558.968 C 987.313 597.077 1027.974 667.504 1027.974 743.72 L 1027.974 1341.054 C 1027.974 1505.278 850.196 1607.918 707.974 1525.806 C 641.968 1487.697 601.307 1417.27 601.307 1341.054 Z" transform="matrix(1, 0, 0, 1, -521.582458, -530.466125)"/>
</svg>