<svg class="svg-icon" style="width: 1em; height: 1em;vertical-align: middle;fill: #68688a;overflow: hidden;" viewBox="0 0 1024 1024" version="1.1" xmlns="http://www.w3.org/2000/svg"><path d="M85.333333 810.666667a128 128 0 0 0 128 128h597.333334a128 128 0 0 0 128-128V213.333333a128 128 0 0 0-128-128H213.333333a128 128 0 0 0-128 128v597.333334z m-85.333333 0V213.333333a213.333333 213.333333 0 0 1 213.333333-213.333333h597.333334a213.333333 213.333333 0 0 1 213.333333 213.333333v597.333334a213.333333 213.333333 0 0 1-213.333333 213.333333H213.333333a213.333333 213.333333 0 0 1-213.333333-213.333333z m512-384a42.666667 42.666667 0 0 1 42.666667 42.666666v85.333334a42.666667 42.666667 0 0 1-85.333334 0v-85.333334a42.666667 42.666667 0 0 1 42.666667-42.666666z m0 256a42.666667 42.666667 0 0 1 42.666667 42.666666v128a42.666667 42.666667 0 0 1-85.333334 0v-128a42.666667 42.666667 0 0 1 42.666667-42.666666z m0-554.666667a42.666667 42.666667 0 0 1 42.666667 42.666667v128a42.666667 42.666667 0 0 1-85.333334 0V170.666667a42.666667 42.666667 0 0 1 42.666667-42.666667z"  /></svg>