<svg class="svg-icon" style="width: 1em; height: 1em;vertical-align: middle;fill: #68688a;overflow: hidden;" viewBox="0 0 1024 1024" version="1.1" xmlns="http://www.w3.org/2000/svg"><path d="M539.343266 935.71214a299.089969 299.089969 0 0 0 48.89545 74.239165A213.330933 213.330933 0 0 1 298.663307 810.657547V213.330933a213.330933 213.330933 0 1 1 426.661866 0v311.036501a297.468653 297.468653 0 0 0-85.332373 41.17287V213.330933a127.99856 127.99856 0 0 0-255.99712 0v597.326614a127.99856 127.99856 0 0 0 155.347586 125.054593zM810.657547 597.326613a213.330933 213.330933 0 1 1 0 426.661867 213.330933 213.330933 0 0 1 0-426.661867z m-106.665467 253.351817h213.330933a39.978217 39.978217 0 1 0 0-79.9991h-213.330933a39.978217 39.978217 0 1 0 0 79.9991z"  /></svg>